# xmcd CD database file
#
# Track frame offsets:
#	150
#	28367
#	51475
#	72865
#	91800
#	121250
#	141075
#	165612
#
# Disc length: 2514 seconds
#
# Revision: 1
# Processed by: cddbd v1.5PL3 Copyright (c) Steve Scherf et al.
# Submitted via: CDex 1.51
#
DISCID=6e09d008
DTITLE=Richard "Dimples" Fields - Mmm...
DYEAR=1984
DGENRE=Jazz
TTITLE0=Jazzy Lady
TTITLE1=Your Wife is Cheatin' On Us
TTITLE2=Dear Mr. God
TTITLE3=Woman (Let Me Into You Life)
TTITLE4=Dog or a Hog?
TTITLE5=We've Gotta Stop Meetin' Like This
TTITLE6=Don't Turn Your Back on My Love
TTITLE7=I Need You So
EXTD=YEAR: 1984
EXTT0=
EXTT1=
EXTT2=
EXTT3=
EXTT4=
EXTT5=
EXTT6=
EXTT7=
PLAYORDER=
